<svg xmlns="http://www.w3.org/2000/svg" version="1.1" xmlns:xlink="http://www.w3.org/1999/xlink" xmlns:svgjs="http://svgjs.dev/svgjs" width="1500" height="935" viewBox="0 0 1500 935"><g transform="matrix(1,0,0,1,-0.9090909090909918,151.9549484725801)"><svg viewBox="0 0 396 247" data-background-color="#ffffff" preserveAspectRatio="xMidYMid meet" height="935" width="1500" xmlns="http://www.w3.org/2000/svg" xmlns:xlink="http://www.w3.org/1999/xlink"><g id="tight-bounds" transform="matrix(1,0,0,1,0.2400000000000091,-0.09999999999999432)"><svg viewBox="0 0 395.52 247.2" height="247.2" width="395.52"><g><svg></svg></g><g><svg viewBox="0 0 395.52 247.2" height="247.2" width="395.52"><g transform="matrix(1,0,0,1,75.54432,87.00925405143721)"><svg viewBox="0 0 244.43135999999998 73.18149189712557" height="73.18149189712557" width="244.43135999999998"><g><svg viewBox="0 0 244.43135999999998 73.18149189712557" height="73.18149189712557" width="244.43135999999998"><g><svg viewBox="0 0 244.43135999999998 73.18149189712557" height="73.18149189712557" width="244.43135999999998"><g><svg viewBox="0 0 244.43135999999998 73.18149189712557" height="73.18149189712557" width="244.43135999999998"><g id="textblocktransform"><svg viewBox="0 0 244.43135999999998 73.18149189712557" height="73.18149189712557" width="244.43135999999998" id="textblock"><g><svg viewBox="0 0 244.43135999999998 73.18149189712557" height="73.18149189712557" width="244.43135999999998"><g transform="matrix(1,0,0,1,0,0)"><svg width="244.43135999999998" viewBox="4.69 -36.74 161.36 48.31" height="73.18149189712557" data-palette-color="#b6a522"><path d="M8.69 0L4.69 0 4.69-33.84 14.16-33.84Q17.94-33.84 20.79-32.9 23.63-31.96 25.21-29.8 26.78-27.64 26.78-23.95L26.78-23.95Q26.78-18.65 23.35-16.13 19.92-13.6 14.36-13.6L14.36-13.6 8.69-13.6 8.69 0ZM8.69-30.54L8.69-16.85 13.79-16.85Q18.36-16.85 20.57-18.54 22.78-20.24 22.78-23.95L22.78-23.95Q22.78-27.71 20.48-29.13 18.19-30.54 13.6-30.54L13.6-30.54 8.69-30.54ZM37.28 0L33.32 0 33.32-36.74 37.28-36.74 37.28-26.64 37.13-21.44Q38.94-23.17 40.94-24.39 42.94-25.61 45.53-25.61L45.53-25.61Q49.44-25.61 51.27-23.13 53.1-20.65 53.1-15.87L53.1-15.87 53.1 0 49.19 0 49.19-15.36Q49.19-18.92 48.04-20.56 46.9-22.19 44.28-22.19L44.28-22.19Q42.36-22.19 40.79-21.17 39.23-20.14 37.28-18.19L37.28-18.19 37.28 0ZM68.55 0.61L68.55 0.61Q64.62 0.61 62.78-1.86 60.93-4.32 60.93-9.11L60.93-9.11 60.93-24.98 64.84-24.98 64.84-9.62Q64.84-6.08 66-4.46 67.16-2.83 69.75-2.83L69.75-2.83Q71.7-2.83 73.25-3.85 74.8-4.86 76.66-7.15L76.66-7.15 76.66-24.98 80.56-24.98 80.56 0 77.31 0 76.97-3.96 76.8-3.96Q75.07-1.9 73.09-0.65 71.11 0.61 68.55 0.61ZM98.8 0.61L98.8 0.61Q95.77 0.61 93.14-0.93 90.52-2.47 88.92-5.38 87.32-8.3 87.32-12.45L87.32-12.45Q87.32-16.63 88.92-19.57 90.52-22.51 93.14-24.06 95.77-25.61 98.8-25.61L98.8-25.61Q101.87-25.61 104.51-24.06 107.15-22.51 108.74-19.57 110.34-16.63 110.34-12.45L110.34-12.45Q110.34-8.3 108.74-5.38 107.15-2.47 104.51-0.93 101.87 0.61 98.8 0.61ZM98.8-2.66L98.8-2.66Q102.14-2.66 104.22-5.36 106.29-8.06 106.29-12.45L106.29-12.45Q106.29-16.87 104.22-19.59 102.14-22.31 98.8-22.31L98.8-22.31Q96.62-22.31 94.94-21.07 93.25-19.82 92.31-17.61 91.37-15.41 91.37-12.45L91.37-12.45Q91.37-8.06 93.45-5.36 95.52-2.66 98.8-2.66ZM121.01 0L117.06 0 117.06-24.98 120.35-24.98 120.72-21.39 120.82-21.39Q122.62-23.17 124.65-24.39 126.67-25.61 129.26-25.61L129.26-25.61Q133.17-25.61 135-23.13 136.83-20.65 136.83-15.87L136.83-15.87 136.83 0 132.92 0 132.92-15.36Q132.92-18.92 131.78-20.56 130.63-22.19 128.02-22.19L128.02-22.19Q126.09-22.19 124.53-21.17 122.96-20.14 121.01-18.19L121.01-18.19 121.01 0ZM153.53 11.57L153.53 11.57Q148.89 11.57 146.03 9.83 143.18 8.08 143.18 4.83L143.18 4.83Q143.18 3.2 144.15 1.73 145.13 0.27 146.81-0.85L146.81-0.85 146.81-1.07Q145.91-1.64 145.26-2.65 144.62-3.66 144.62-5.15L144.62-5.15Q144.62-6.74 145.52-7.93 146.42-9.13 147.35-9.79L147.35-9.79 147.35-9.99Q146.11-10.96 145.13-12.71 144.15-14.45 144.15-16.67L144.15-16.67Q144.15-19.41 145.42-21.41 146.69-23.41 148.8-24.51 150.92-25.61 153.43-25.61L153.43-25.61Q154.48-25.61 155.37-25.43 156.26-25.24 156.92-24.98L156.92-24.98 165.64-24.98 165.64-21.95 160.39-21.95Q161.32-21.04 161.93-19.65 162.54-18.26 162.54-16.63L162.54-16.63Q162.54-13.96 161.33-12.01 160.12-10.06 158.06-9 155.99-7.93 153.43-7.93L153.43-7.93Q152.5-7.93 151.51-8.15 150.52-8.37 149.67-8.79L149.67-8.79Q148.99-8.23 148.5-7.52 148.01-6.81 148.01-5.76L148.01-5.76Q148.01-4.52 148.95-3.75 149.89-2.98 152.45-2.98L152.45-2.98 157.38-2.98Q161.73-2.98 163.89-1.54 166.05-0.1 166.05 2.98L166.05 2.98Q166.05 5.27 164.51 7.23 162.98 9.18 160.16 10.38 157.34 11.57 153.53 11.57ZM153.43-10.6L153.43-10.6Q155.68-10.6 157.31-12.24 158.95-13.89 158.95-16.67L158.95-16.67Q158.95-19.51 157.32-21.11 155.7-22.71 153.43-22.71L153.43-22.71Q151.13-22.71 149.55-21.11 147.96-19.51 147.96-16.67L147.96-16.67Q147.96-13.89 149.58-12.24 151.21-10.6 153.43-10.6ZM154.04 8.79L154.04 8.79Q156.51 8.79 158.31 8.03 160.12 7.28 161.12 6.08 162.12 4.88 162.12 3.54L162.12 3.54Q162.12 1.73 160.84 1.04 159.56 0.34 157.02 0.34L157.02 0.34 152.55 0.34Q151.87 0.34 151.01 0.26 150.16 0.17 149.3-0.05L149.3-0.05Q147.91 0.9 147.29 2.05 146.67 3.2 146.67 4.32L146.67 4.32Q146.67 6.37 148.62 7.58 150.57 8.79 154.04 8.79Z" opacity="1" transform="matrix(1,0,0,1,0,0)" fill="#b6a522" class="wordmark-text-0" data-fill-palette-color="primary" id="text-0"></path></svg></g></svg></g></svg></g></svg></g><g></g></svg></g></svg></g></svg></g><g><path d="M88.056 69.733A122.216 122.216 0 0 1 307.464 69.733L300.865 69.733A115.616 115.616 0 0 0 94.655 69.733L88.056 69.733M88.056 177.467A122.216 122.216 0 0 0 307.464 177.467L300.865 177.467A115.616 115.616 0 0 1 94.655 177.467L88.056 177.467" fill="#b6a522" stroke="transparent" data-fill-palette-color="tertiary"></path></g></svg></g><defs></defs></svg><rect width="395.52" height="247.2" fill="none" stroke="none" visibility="hidden"></rect></g></svg></g></svg>